<svg id="Слой_1" data-name="Слой 1" xmlns="http://www.w3.org/2000/svg" viewBox="0 0 99.4641 82.0027"><defs><style>.cls-1{fill:#f9a40d;}.cls-2{fill:#468c7f;}.cls-3{fill:#fc004a;}</style></defs><title>burger</title><g id="Слой_1-2" data-name="Слой_1"><g id="_245070253520" data-name=" 245070253520"><path class="cls-1" d="M5.9878,37.0474,86.9043,20.6647C82.1109,8.8674,62.92,2.8085,42.047,7.0385,21.1483,11.2685,5.8145,24.3226,5.9878,37.0474Zm87.929-11.962L1.2464,43.8518.6743,41.0433C-2.6976,24.3746,15.3494,6.6051,40.9029,1.4216c25.5448-5.1662,49.07,4.1866,52.45,20.8554Z" transform="translate(-0.2691 0.0006)"/><path class="cls-1" d="M13.191,72.4911c1.1009,2.2277,3.2939,4.4554,7.6366,3.58l67.533-13.6782c4.3427-.8755,5.4955-3.7793,5.6429-6.267ZM89.4961,68.01,21.9631,81.6879c-8.7027,1.76-13.9556-4.152-15.3078-10.8l-.5634-2.8,92.74-18.7837.5634,2.8085C100.7386,58.7522,98.2075,66.25,89.4961,68.01Z" transform="translate(-0.2691 0.0006)"/><path class="cls-2" d="M94.5842,36.7613c-1.8376,1.82-3.6666,1.803-6.631,1.1269a6.6613,6.6613,0,0,0-6.0417,1.3782,10.07,10.07,0,0,1-2.21,1.2569,5.9532,5.9532,0,0,1-3.736-.13,9.8273,9.8273,0,0,0-4.0826-.3814,10.558,10.558,0,0,0-4.5681,2.2364,7.6207,7.6207,0,0,1-3.3026,1.7336,8.22,8.22,0,0,1-3.5712-.3987,12.0473,12.0473,0,0,0-4.2647-.5374,11.105,11.105,0,0,0-5.5042,2.1323c-2.3317,1.725-3.9613,1.7683-6.64,1.1529a6.697,6.697,0,0,0-6.05,1.3782A10.001,10.001,0,0,1,35.78,48.966a5.83,5.83,0,0,1-3.7359-.1214,9.8259,9.8259,0,0,0-4.0827-.3814A10.2326,10.2326,0,0,0,23.3933,50.7a7.7135,7.7135,0,0,1-3.3025,1.7336,8.17,8.17,0,0,1-3.5626-.3987,12.14,12.14,0,0,0-4.282-.5461c-2.9645.2773-6.7,2.0976-7.7753,4.9494L7.1494,57.452c.5547-1.4736,2.9991-2.8951,5.3655-3.1118a9.73,9.73,0,0,1,3.2939.4594,10.7921,10.7921,0,0,0,4.8021.4507l.1387-.026a10.7093,10.7093,0,0,0,4.3427-2.219,7.5482,7.5482,0,0,1,3.32-1.7163,7.3594,7.3594,0,0,1,2.9471.3294,8.3933,8.3933,0,0,0,5.4349.026,12.6818,12.6818,0,0,0,2.8171-1.5776c1.2742-.8755,1.9763-1.3609,3.7706-.9448,3.3372.7628,5.9116.7368,9.1622-1.751l-.0087-.0173a8.3854,8.3854,0,0,1,3.9006-1.4649,9.9937,9.9937,0,0,1,3.2939.4681,10.919,10.919,0,0,0,4.8021.4507c.0434-.0173.0954-.0173.1387-.0347a10.8042,10.8042,0,0,0,4.3514-2.219,7.6561,7.6561,0,0,1,3.3112-1.7163,7.37,7.37,0,0,1,2.9472.3381,8.4575,8.4575,0,0,0,5.4348.0173,12.6174,12.6174,0,0,0,2.8258-1.5689c1.2656-.8755,1.9677-1.3609,3.7706-.9448,3.0252.6934,6.25,1.1268,9.2835-1.8723Z" transform="translate(-0.2691 0.0006)"/><polygon class="cls-3" points="94.818 31.665 2.425 50.371 1.853 47.562 94.246 28.857 94.818 31.665"/><polygon class="cls-3" points="97.609 45.43 5.216 64.144 4.644 61.336 97.037 42.63 97.609 45.43"/></g></g></svg>