<svg id="Слой_1" data-name="Слой 1" xmlns="http://www.w3.org/2000/svg" viewBox="0 0 100.0046 106.297"><defs><style>.cls-1{fill:#fc004a;}.cls-2{fill:#f9a40d;}.cls-3{fill:#468c7f;}</style></defs><title>chicken</title><g id="Слой_1-2" data-name="Слой_1"><g id="_245057870752" data-name=" 245057870752"><path class="cls-1" d="M22.4378,24.3611,19.527,22.9663a17.59,17.59,0,0,1,5.4578-6.5494c5.094-3.76,11.886-5.094,14.7969-5.7l.91-.1819c.6671-.182,1.3948-.3033,2.1832-.4852,3.214-.5458,6.9133-1.2128,12.1285-6.61C57.55.8317,61.1886-.32,63.9175.71c1.2129.4245,3.2141,1.7587,3.6992,5.1547a6.9236,6.9236,0,0,1,3.9418,6.0036,7.851,7.851,0,0,1-5.2759,7.0952c-5.3366,2.1225-7.3378,4.7908-8.6113,7.0952l-2.79-1.5767c1.4555-2.6076,3.8812-6.0036,10.188-8.49,1.9406-.849,3.2141-2.4257,3.2141-4.0631a3.7383,3.7383,0,0,0-2.6683-3.396h0l-.4245-.1819-.667-.7277-.0607-.6671c-.1213-1.7586-.6671-2.85-1.698-3.214-1.5161-.5458-3.8205.3032-5.4578,1.94-5.943,6.1856-10.3093,6.974-13.8872,7.58-.6671.1213-1.3342.2426-1.9406.3638a8.819,8.819,0,0,1-1.0309.2426c-2.729.5458-9.0358,1.8193-13.5234,5.1547A13.9568,13.9568,0,0,0,22.4378,24.3611Z" transform="translate(0.0087 -0.3351)"/><path class="cls-2" d="M76.5312,51.893l-1.516-2.85.667-.3638c3.1535-1.698,7.3985-4.0631,15.4033-2.0619a4.5917,4.5917,0,0,0,5.0334-1.3948c.849-1.1522.7277-2.7289-.2426-4.3056l-.2426-.5458-.0606-.6064.3032-.7884c.97-1.4554,1.1522-2.6683.5458-3.5779-.91-1.3341-3.2747-2.0012-5.5792-1.6374-8.4293,1.5161-12.4317-.4245-15.7065-2.0012-.6064-.3032-1.2128-.6064-1.8192-.849-.2426-.1212-.5458-.2425-.97-.4245-2.4864-1.1522-8.3687-3.76-13.9479-3.76a13.3656,13.3656,0,0,0-13.4627,11.037l-3.1534-.6065A16.5372,16.5372,0,0,1,58.3384,23.5121c6.3068-.0606,12.6743,2.79,15.3426,4.0024.3639.182.6671.3033.849.4245a19.5609,19.5609,0,0,1,2.0619.91c2.9108,1.4554,6.3068,3.0928,13.7052,1.7586,3.578-.667,7.2165.6065,8.7933,2.9715.7277,1.0916,1.6373,3.3354-.0607,6.3675a6.6167,6.6167,0,0,1-.3032,7.1559,7.7088,7.7088,0,0,1-8.3687,2.6683c-6.8526-1.698-10.188.1212-13.0988,1.698Z" transform="translate(0.0087 -0.3351)"/><polygon class="cls-1" points="98.189 61.746 8.317 25.603 9.469 22.631 99.402 58.774 98.189 61.746"/><path class="cls-2" d="M31.8375,97.6783C-1.5161,84.2762-.5458,78.2726.2426,76.0894L10.0667,33.7l6.3069,1.4554L6.6707,76.9991c1.9406,2.1831,11.037,8.0655,27.5318,14.6755,16.5555,6.6707,27.168,8.7326,30.0789,8.49L86.78,62.3235l5.5791,3.3354L69.5573,103.9245C68.6477,106.047,65.13,111.08,31.8375,97.6783Z" transform="translate(0.0087 -0.3351)"/><polygon class="cls-3" points="92.368 67.386 21.052 38.702 22.265 35.669 93.581 64.353 92.368 67.386"/></g></g></svg>