<svg id="Слой_1" data-name="Слой 1" xmlns="http://www.w3.org/2000/svg" viewBox="0 0 95.7203 120.0043"><defs><style>.cls-1{fill:#f9a40d;}.cls-2{fill:#fc004a;}.cls-3{fill:#468c7f;}</style></defs><title>chips</title><g id="Слой_1-2" data-name="Слой_1"><g id="_245068361216" data-name=" 245068361216"><polygon class="cls-1" points="8.421 51.537 0 26.232 13.389 19.032 22.653 48.632 19.284 49.684 11.284 24.126 4.253 27.916 11.747 50.442 8.421 51.537"/><polygon class="cls-1" points="68.589 41.305 65.095 41.6 62.358 8.463 54.653 11.116 57.811 43.074 54.316 43.411 50.863 8.716 65.474 3.705 68.589 41.305"/><polygon class="cls-1" points="42.526 45.305 39.074 45.895 32.421 6.147 46.611 0 53.221 42.779 49.768 43.326 43.832 5.011 36.337 8.253 42.526 45.305"/><polygon class="cls-1" points="23.832 48.8 17.811 23.074 31.747 16.842 38.063 46.189 34.611 46.947 29.221 21.811 21.895 25.095 27.242 48 23.832 48.8"/><polygon class="cls-1" points="83.958 38.821 80.463 38.863 80.211 15.579 72.337 14.358 73.095 40.632 69.6 40.716 68.716 10.232 83.705 12.589 83.958 38.821"/><polygon class="cls-2" points="90.4 39.158 1.263 54.189 0.674 50.737 89.811 35.705 90.4 39.158"/><polygon class="cls-3" points="76.463 48 72.968 48.589 77.137 92.379 30.989 100.168 20.547 57.432 17.095 58.021 27.789 101.768 21.684 111.747 24.674 113.558 30.695 103.789 78.568 95.705 87.242 103.032 89.516 100.337 80.674 92.884 76.463 48"/><path class="cls-1" d="M83.979,46.9053l4.6315,54.6105-65.0526,10.99L10,59.3684,3.0526,60.5053l14.4842,56.8421a3.5483,3.5483,0,0,0,4,2.6105l71.4106-12.0421a3.4738,3.4738,0,0,0,2.9052-3.7474L90.9263,45.7263l-6.9473,1.179Z" transform="translate(-0.1474 0)"/></g></g></svg>