<svg id="Слой_1" data-name="Слой 1" xmlns="http://www.w3.org/2000/svg" viewBox="0 0 75.8795 110.0315"><defs><style>.cls-1{fill:#f9a40d;}.cls-2{fill:#fc004a;}.cls-3{fill:#468c7f;}</style></defs><title>lester</title><path class="cls-1" d="M14.0337,97.6813c-6.2383-4.2642-8.4493-9.8708-6.6331-17.2147L20.0352,29.6913A49.1033,49.1033,0,0,1,31.4063,40.4307a47.2224,47.2224,0,0,1,4.58-5.1328,56.7542,56.7542,0,0,0-16.425-13.8191L15.692,19.3467.8464,78.8083c-2.6849,10.8184,1.4214,19.8206,11.45,25.6641Z" transform="translate(-0.0434 -0.0012)"/><path class="cls-1" d="M66.8622,38.22C53.28,38.6145,41.2771,47.7746,37.9605,60.804L27.6949,102.2613c14.6088,3.1586,23.453-.6317,26.0589-11.2922Zm-42.9577,70.043-.9476-.2369-3.3955-1.0265L31.4853,59.2247c4.3431-17.53,21.5578-29.3755,40.0359-27.5592l3.8693.3948L60.308,92.6274C56.5176,107.631,43.6461,113.2376,23.9045,108.2627Z" transform="translate(-0.0434 -0.0012)"/><path class="cls-2" d="M32.5118,21.7947l-3.0007-1.5793A17.4786,17.4786,0,0,1,49.3317,11.45h.0789A17.6523,17.6523,0,0,1,62.7559,27.0065l-3.3955.3158A14.019,14.019,0,0,0,48.542,14.6877h0A14.1858,14.1858,0,0,0,32.5118,21.7947Z" transform="translate(-0.0434 -0.0012)"/><path class="cls-3" d="M23.5887,15.1615l-3.2377-.79.4738-1.8163c.6318-3.0007,1.0266-4.58,3.3166-6.3173,2.5269-1.8952,4.817-1.3424,6.4753-.9476a5.7263,5.7263,0,0,0,2.5269.2369,14.5266,14.5266,0,0,0,2.9217-1.8952C38.9081,1.5,42.9354-1.4214,46.7258.79A4.2918,4.2918,0,0,1,48.3051,2.369a3.7945,3.7945,0,0,0,.7107.79c.9476.3159,1.8162,0,3.1586-.4738a12.6264,12.6264,0,0,1,4.0273-.7107c3.9483.079,5.1328,2.2111,6.1594,4.0273a16.0382,16.0382,0,0,0,1.1055,1.8163c.7107,1.0265,2.0531,1.2634,4.1063,1.5a19.0014,19.0014,0,0,1,2.7638.5528,7.5981,7.5981,0,0,1,5.2907,4.738C76.575,17.61,75.2326,21.4,71.7581,25.822L69.0732,23.69c3.4745-4.3432,3.7114-6.7911,3.3166-8.1336a4.162,4.162,0,0,0-3.0007-2.4479,19.5377,19.5377,0,0,0-2.29-.4738c-2.1321-.2369-4.738-.6317-6.3963-2.8428A16.5282,16.5282,0,0,1,59.4393,7.66c-.9476-1.7372-1.3424-2.29-3.3165-2.369a9.222,9.222,0,0,0-2.8428.6318c-1.5.4738-3.2376,1.1055-5.2118.4738A4.643,4.643,0,0,1,45.62,4.3431a4.6849,4.6849,0,0,0-.6317-.6317c-1.6583-1.0266-4.0273.5528-6.949,2.6849a15.1466,15.1466,0,0,1-3.9483,2.29,6.9815,6.9815,0,0,1-4.2642-.1579c-1.5793-.3159-2.448-.4738-3.6325.3948-1.2634.9476-1.5,1.5793-2.132,4.3431Z" transform="translate(-0.0434 -0.0012)"/></svg>