<svg width="197" height="30" viewBox="0 0 197 30" fill="none" xmlns="http://www.w3.org/2000/svg">
<path d="M38.673 19.2845C38.3109 19.5321 37.8953 19.7616 37.4236 19.9407C36.4782 20.3065 35.4879 20.412 34.8205 20.2967C35.3627 20.0342 35.9168 19.7304 36.4579 19.3795C36.5308 19.3312 37.1035 18.9285 37.1249 18.9179C37.5121 18.6246 37.891 18.3248 38.231 18.0163C38.2572 17.9953 38.4466 17.8281 38.5145 17.7542C38.5714 17.6969 38.7347 17.5388 38.7612 17.5189C40.9709 15.3009 41.8876 12.7482 40.7978 11.2806C40.2458 10.5258 39.2392 10.1738 38.0205 10.2006C37.5539 10.5519 36.9888 10.8771 36.3458 11.1229C35.3089 11.5257 34.2711 11.6628 33.4302 11.5634C34.2587 11.1965 35.1101 10.7354 35.9418 10.1738C36.0213 10.1212 36.1001 10.069 36.1687 10.0106C39.9994 7.29629 42.2498 3.21806 40.7721 1.20522C40.3398 0.622616 39.663 0.255723 38.8294 0.0987427C38.7616 0.0827909 38.3994 0.0414611 38.3827 0.0414611C38.2477 0.0262343 38.0949 0.0149955 37.989 0.0149955C33.1678 -0.236609 27.1861 2.85624 23.2095 8.05074C17.6774 15.2806 17.4691 24.3064 22.7421 28.2023C25.8645 30.5142 30.208 30.5091 34.3788 28.6272C34.6379 28.5065 35.5289 28.0341 35.9172 27.7883C36.1585 27.6313 36.9932 27.0592 37.1884 26.8975C39.9639 24.6693 41.27 21.7603 40.1011 20.1818C39.7694 19.7311 39.2805 19.4375 38.673 19.2852V19.2845Z" fill="#FC004A"/>
<path d="M8.19093 22.3243V2.91268C8.19093 1.64523 7.17335 0.621778 5.90973 0.580811H0.000976562V27.2106C0.0365409 28.4476 1.03524 29.4435 2.27745 29.4754H15.5789V22.3239H8.19129L8.19093 22.3243Z" fill="#FC004A"/>
<path d="M53.0455 8.72712C53.0455 7.85593 53.6073 7.16964 55.1173 7.16964C56.3515 7.16964 57.6362 7.40529 58.869 7.90959C59.8078 8.28156 60.7161 8.81558 61.5443 9.50731L64.012 5.49216C64.9026 4.07172 64.687 2.82348 63.3073 2.06976C63.276 2.05417 63.2503 2.04329 63.2245 2.02662C60.9836 0.770045 58.3039 0.109131 55.4265 0.109131C48.3169 0.109131 44.6756 4.70073 44.6756 9.38187C44.6756 19.6875 57.4682 17.9944 57.4682 21.2029C57.4682 22.2833 56.3392 22.9326 54.8234 22.9326C52.0058 22.9326 49.3606 21.7217 47.6238 19.9025L45.1481 23.9503C44.3827 25.1249 44.3544 26.6806 45.6205 27.5623C45.6369 27.5826 45.6655 27.5877 45.6873 27.609C48.0331 29.1335 50.994 29.9996 54.8705 29.9996C61.5871 29.9996 65.7499 26.2669 65.7499 20.385C65.7499 10.6352 53.0451 11.7565 53.0451 8.72712H53.0455Z" fill="#FC004A"/>
<path d="M96.1571 2.22216C95.8846 1.38288 95.2121 0.581299 93.5976 0.581299H85.7411L77.2471 29.4763H83.6211C84.6401 29.444 85.4944 28.7675 85.7887 27.8506L86.4129 25.749H94.9646L95.5427 27.7451C95.8066 28.7196 96.6924 29.4444 97.7426 29.4763H104.176L96.1568 2.22216H96.1571ZM88.5217 18.5975L90.7314 10.478L92.9092 18.5975H88.5217Z" fill="#FC004A"/>
<path d="M113.42 0.580811H107.512V27.1736C107.528 28.4317 108.54 29.4439 109.788 29.4758H115.703V2.87679C115.703 1.57635 114.668 0.622503 113.42 0.580811Z" fill="#FC004A"/>
<path d="M129.838 22.3243V2.91268C129.834 1.64523 128.816 0.621778 127.552 0.580811H121.644V27.2106C121.679 28.4476 122.687 29.4435 123.92 29.4754H137.234V22.3239H129.838V22.3243Z" fill="#FC004A"/>
<path d="M160.314 19.2845C159.959 19.5321 159.534 19.7616 159.061 19.9407C158.116 20.3065 157.123 20.412 156.459 20.2967C157.01 20.0342 157.564 19.7304 158.107 19.3795C158.175 19.3312 158.75 18.9285 158.766 18.9179C159.159 18.6246 159.527 18.3248 159.875 18.0163C159.906 17.9953 160.088 17.8281 160.159 17.7542C160.225 17.6969 160.384 17.5388 160.398 17.5189C162.614 15.3009 163.532 12.7482 162.451 11.2806C161.89 10.5258 160.893 10.1738 159.663 10.2006C159.198 10.5519 158.63 10.8771 157.996 11.1229C156.956 11.5257 155.919 11.6628 155.072 11.5634C155.913 11.1965 156.757 10.7354 157.592 10.1738C157.666 10.1212 157.738 10.069 157.822 10.0106C161.647 7.29629 163.897 3.21806 162.42 1.20522C161.988 0.622616 161.312 0.255723 160.471 0.0987427C160.398 0.0827909 160.047 0.0414611 160.026 0.0414611C159.901 0.0262343 159.739 0.0149955 159.632 0.0149955C154.815 -0.236609 148.825 2.85624 144.85 8.05074C139.316 15.2806 139.116 24.3064 144.377 28.2023C147.507 30.5142 151.851 30.5091 156.022 28.6272C156.274 28.5065 157.166 28.0341 157.563 27.7883C157.806 27.6313 158.636 27.0592 158.828 26.8975C161.612 24.6693 162.907 21.7603 161.747 20.1818C161.422 19.7311 160.924 19.4375 160.313 19.2852L160.314 19.2845Z" fill="#FC004A"/>
<path d="M174.687 8.72712C174.687 7.85593 175.25 7.16964 176.771 7.16964C177.993 7.16964 179.286 7.40529 180.513 7.90959C181.458 8.28156 182.366 8.81558 183.189 9.50731L185.654 5.49216C186.546 4.07172 186.332 2.82348 184.947 2.06976C184.925 2.05417 184.9 2.04329 184.868 2.02662C182.627 0.770045 179.952 0.109131 177.069 0.109131C169.961 0.109131 166.319 4.70073 166.319 9.38187C166.319 19.6875 179.112 17.9944 179.112 21.2029C179.112 22.2833 177.983 22.9326 176.467 22.9326C173.643 22.9326 171.004 21.7217 169.267 19.9025L166.796 23.9503C166.026 25.1249 165.994 26.6806 167.262 27.5623C167.29 27.5826 167.306 27.5877 167.331 27.609C169.683 29.1335 172.631 29.9996 176.508 29.9996C183.23 29.9996 187.391 26.2669 187.391 20.385C187.391 10.6352 174.687 11.7565 174.687 8.72712H174.687Z" fill="#FC004A"/>
<path d="M193.179 5.21989H192.53V1.5506H193.128C193.443 1.54517 193.621 1.54517 193.653 1.54517C194.534 1.54517 194.975 1.91713 194.975 2.67231C194.975 2.95546 194.901 3.18494 194.758 3.36404C194.622 3.53226 194.455 3.6577 194.276 3.71498L195.425 5.21989H194.639L193.631 3.85166H193.18V5.21989H193.179ZM193.179 2.15351V3.23788H193.599C193.999 3.23788 194.298 3.03376 194.298 2.67702C194.298 2.32101 194.078 2.14264 193.621 2.14264C193.557 2.14264 193.406 2.14735 193.179 2.15315V2.15351Z" fill="#FC004A"/>
<path d="M193.725 6.65121C191.916 6.65121 190.446 5.17784 190.446 3.37528C190.446 1.57671 191.916 0.109863 193.725 0.109863C195.532 0.109863 197 1.57671 197 3.37528C197 5.17784 195.531 6.65121 193.725 6.65121ZM193.725 0.664915C192.23 0.664915 191.002 1.87544 191.002 3.37528C191.002 4.87874 192.23 6.09616 193.725 6.09616C195.226 6.09616 196.449 4.87911 196.449 3.37528C196.449 1.87581 195.226 0.664915 193.725 0.664915Z" fill="#FC004A"/>
</svg>
