<svg id="Слой_1" data-name="Слой 1" xmlns="http://www.w3.org/2000/svg" viewBox="0 0 99.9922 102.3977"><defs><style>.cls-1{fill:#fc004a;}.cls-2{fill:#f9a40d;}.cls-3{fill:#468c7f;}</style></defs><title>salad</title><polygon class="cls-1" points="99.041 40.281 0.512 55.115 0 51.726 98.497 36.861 99.041 40.281"/><polygon class="cls-2" points="82.353 95.013 33.312 102.398 32.257 95.588 81.298 88.203 82.353 95.013"/><polygon class="cls-3" points="36.957 41.752 38.043 22.602 34.623 22.41 33.728 37.404 16.88 13.267 14.066 15.217 23.849 29.252 15.473 27.973 14.962 31.394 26.566 33.152 32.992 42.359 36.957 41.752"/><path class="cls-3" d="M56.7136,23.9584a17.0279,17.0279,0,0,0-7.8006-2.4616A15.1305,15.1305,0,0,0,47.0588,16.51a14.54,14.54,0,0,0-17.04-6.2021A14.6486,14.6486,0,0,0,3.6125,15.039,14.5121,14.5121,0,0,0,5.3708,26.0684c.2558.3836.48.7353.7353,1.087a14.5626,14.5626,0,0,0-.991,16.5281c.16.2558.3517.4795.5435.7353l4.0281-.6074a11.5184,11.5184,0,0,1-1.63-1.9182A11.1274,11.1274,0,0,1,9.6228,28.37l1.1509-1.1829L9.6228,25.9725A10.6276,10.6276,0,0,1,8.312,24.2462,11.0138,11.0138,0,0,1,6.9693,15.87a11.1551,11.1551,0,0,1,20.4923-3.069c.0959.16.16.32.2558.4795l.7673,1.4386,1.4705-.7033A11.1038,11.1038,0,0,1,44.0857,18.3a10.7914,10.7914,0,0,1,1.5665,5.0511l.1278,1.6944,1.6944-.0959a12.9167,12.9167,0,0,1,7.8964,2.2378Z" transform="translate(0 -0.3011)"/><path class="cls-1" d="M88.2992,32.5582l3.5167-.5435A30.9416,30.9416,0,0,0,72.89.9725L71.2916.3011,56.0742,37.2257l3.1969,1.3107,2.8453-6.9373,15.5051,4.8274,1.023-3.2929L65.7609,29.1375c4.5716-2.43,12.2442-7.0972,12.66-7.321l-1.79-2.9412c-.0959.032-7.6726,4.6356-12.1483,7.0333L73.1458,4.8728A27.4872,27.4872,0,0,1,88.2992,32.5582Z" transform="translate(0 -0.3011)"/><path class="cls-2" d="M93.0627,47.9994A44.0442,44.0442,0,0,1,73.4655,85.02L77.27,90.7743a50.8416,50.8416,0,0,0,22.6982-43.83Z" transform="translate(0 -0.3011)"/><path class="cls-2" d="M8.4079,60.7551,1.5026,61.81A50.8966,50.8966,0,0,0,36.0933,96.9763l1.95-6.6176A43.9842,43.9842,0,0,1,8.4079,60.7551Z" transform="translate(0 -0.3011)"/></svg>