<svg id="Слой_1" data-name="Слой 1" xmlns="http://www.w3.org/2000/svg" viewBox="0 0 79.634 139.9955"><defs><style>.cls-1{fill:#fc004a;}.cls-2{fill:#468c7f;}.cls-3{fill:#f9a40d;}</style></defs><title>soda</title><g id="Слой_1-2" data-name="Слой_1"><g id="_245246568528" data-name=" 245246568528"><path class="cls-1" d="M-75.5833,44.5029l64.7685,13.606c.0236-2.8477-1.087-6.1915-2.3691-6.4574L-70.8156,39.5462C-72.0976,39.2744-74.4667,41.8857-75.5833,44.5029ZM-8.1267,61.9963-79.6125,46.9842l.3367-1.5951c.774-3.6983,4.8327-9.9312,9.1278-9.0273l57.6317,12.1053c4.2951.9039,5.5,8.2416,4.7264,11.94Z" transform="translate(87.2047 6.8546)"/><path class="cls-1" d="M-13.2843,45.59l-3.1844-.6735A3.1091,3.1091,0,0,0-18.43,42.057L-62.1546,32.87a3.1117,3.1117,0,0,0-2.9481,1.8315l-3.1843-.6676c.4667-2.2273,3.527-5.0336,6.8-4.3483l43.7245,9.1869C-14.4895,39.558-12.8176,43.3627-13.2843,45.59Z" transform="translate(87.2047 6.8546)"/><polygon class="cls-2" points="62.63 41.881 59.635 40.605 75.055 4.431 71.717 3.734 56.073 40.505 53.077 39.229 69.773 0 79.604 2.068 62.63 41.881"/><path class="cls-3" d="M-17.987,65.7714-35.9,126.57c-6.9595,1.028-38.5846-5.6184-44.5694-9.3581l8.0584-62.878-6.3982-1.3411-8.2357,64.3786c-.5258,2.505-1.4,6.6819,27.141,12.6784s29.4214,1.8137,29.8823-.4313l18.4268-62.5058Z" transform="translate(87.2047 6.8546)"/></g></g></svg>